<?xml version="1.0" standalone="no"?><!DOCTYPE svg PUBLIC "-//W3C//DTD SVG 1.1//EN" "http://www.w3.org/Graphics/SVG/1.1/DTD/svg11.dtd"><svg t="1569077617782" class="icon" viewBox="0 0 1024 1024" version="1.1" xmlns="http://www.w3.org/2000/svg" p-id="23760" xmlns:xlink="http://www.w3.org/1999/xlink" width="200" height="200"><defs><style type="text/css"></style></defs><path d="M748.2 431.2c-14.8 0-27.1-11.7-27.7-26.6-0.6-15.3 11.3-28.2 26.6-28.8 81.2-3.1 114.2-14 126.6-20.2 13.7-6.9 30.4-1.3 37.2 12.4 6.8 13.7 1.3 30.3-12.4 37.2-29.2 14.6-79.4 23.3-149.2 26h-1.1zM655.8 432.6h-1.6c-69.5-4-187.8-15.6-222.5-25.6-134.8-38.7-307.6 19.8-309.3 20.4-14.4 4.9-30.2-2.7-35.2-17.2-5-14.5 2.7-30.2 17.2-35.2 7.7-2.7 191.2-64.7 342.7-21.2 24.8 7.1 130.9 19 210.3 23.5 15.3 0.9 27 14 26.1 29.3-0.9 14.6-13.1 26-27.7 26z" fill="#6893FF" p-id="23761"></path><path d="M656.2 800.7c-12.6 0-24-8.7-27-21.5-2.7-11.5-2.8-25.1-3-42.4-0.3-23.3-0.6-52.3-7.7-82.9-9.6-41.6 13.1-103.7 15.7-110.7 5.4-14.3 21.4-21.5 35.7-16.1 14.3 5.4 21.6 21.4 16.2 35.7-8.2 21.7-17.8 60.5-13.6 78.7 8.4 36.4 8.8 70.1 9.1 94.7 0.1 12.8 0.3 24.9 1.6 30.6 3.4 14.9-5.9 29.8-20.8 33.2-2 0.5-4.1 0.7-6.2 0.7zM723.4 782.1c-0.8 0-1.7 0-2.5-0.1-15-1.3-26.2-14.4-25.2-29.4-0.1-1.5-0.5-3.1-0.9-5-1.5-8.2-3.8-20.5-2.3-37.7 1.8-20.6 18-42.1 22.9-48.2 9.6-11.9 27-13.8 39-4.2 11.9 9.6 13.8 27.1 4.2 39-4.9 6.2-10.3 15.3-10.9 18.7-0.8 9.2 0.4 15.8 1.6 22.2 1.1 6 2.3 12.2 1.6 19.4-1.2 14.4-13.3 25.3-27.5 25.3z" fill="#39DB8F" p-id="23762"></path><path d="M512 851.5c-244.5 0-443.4-164.7-443.4-367.2 0-112.9 59-233.7 146.8-300.6 9.4-7.2 21.4-11.2 33.5-11.2h9.3c15.3 0 27.7 12.4 27.7 27.7s-12.4 27.7-27.7 27.7h-9.3C175.4 283.8 124 389.3 124 484.3c0 171.9 174.1 311.8 388 311.8s388-139.9 388-311.8c0-95-51.4-200.5-125-256.5l-360 0.2c-15.3 0-27.7-12.4-27.7-27.7s12.4-27.7 27.7-27.7h360.1c12.2 0 24.1 4 33.6 11.2 87.8 66.9 146.8 187.7 146.8 300.6-0.1 202.4-199 367.1-443.5 367.1z" fill="#6893FF" p-id="23763"></path><path d="M342.6 227.9h-10.7c-15.3 0-27.7-12.4-27.7-27.7s12.4-27.7 27.7-27.7h10.7c15.3 0 27.7 12.4 27.7 27.7s-12.4 27.7-27.7 27.7z" fill="#6893FF" p-id="23764"></path><path d="M353.8 490.8c-22.1-2.1-57.2 12.3-68.7 29.2-6.6 9.8-20.1 11.8-29.1 4.2 0 0-15.8-29.6-25.2-28.3-5.8 0.8-6.7 13.8-7.4 22.1-0.5 5.7 2.2 27.1-3.7 40-2.8 6-1.5 11.6 0.7 16 2.8 5.6 9.7 7.8 15.4 5.2l25.8-11.9c6.8-1.7 13.9-0.2 19.5 4 11.5 8.8 27 15.1 44.6 16.7 38.7 3.6 72.1-15.9 74.6-43.5 2.5-27.7-7.8-50.2-46.5-53.7z m12 60.5c-7.5-0.7-13-7.3-12.3-14.8 0.7-7.5 7.3-13 14.8-12.3 7.5 0.7 13 7.3 12.3 14.8-0.7 7.5-7.4 13-14.8 12.3zM475.5 712.6c15.4 1.5 26.2-7.3 33.7-17.3 4-5.4 11.3-7 16.9-3.4 0 0 16 16.8 21.8 13.9 3.1-1.5 0.7-8 1.2-13.7 0.3-3.9-1.5-18.6 2.5-27.5 4.1-9.2 4.4-12.5 1.2-13.7-5.8-2.3-24.1 6.2-24.1 6.2-7.3 1.9-14.8 0-21.1-4.1-7.1-4.7-16-8-26-8.9-25.5-2.5-47.6 10.9-49.3 29.9-1.7 18.8 17.7 36.2 43.2 38.6z m-14.9-56.3c7.1 0.7 12.4 7.3 11.7 14.7-0.7 7.4-7 12.9-14.1 12.2s-12.4-7.3-11.7-14.7c0.6-7.4 6.9-12.9 14.1-12.2z" fill="#FF6E90" p-id="23765"></path></svg>