<?xml version="1.0" standalone="no"?><!DOCTYPE svg PUBLIC "-//W3C//DTD SVG 1.1//EN" "http://www.w3.org/Graphics/SVG/1.1/DTD/svg11.dtd"><svg t="1575213570000" class="icon" viewBox="0 0 1024 1024" version="1.1" xmlns="http://www.w3.org/2000/svg" p-id="2936" xmlns:xlink="http://www.w3.org/1999/xlink" width="260" height="260"><defs><style type="text/css"></style></defs><path d="M723.328 660.672S661.333333 768 576 768c-87.957333 0-61.333333-106.325333-61.333333-106.325333l208.661333-1.002667zM698.666667 338.005333S642.005333 233.344 576 234.666667c-87.936 1.792-65.642667 91.157333-65.642667 91.157333l188.309334 12.181333zM285.696 426.837333c-0.789333 0.277333-65.258667-214.378667 171.648-88.170666 0 0-163.306667 88.341333-171.648 88.170666zM285.333333 594.666667c-0.789333-0.277333-64.234667 217.557333 172.672 91.328 0 0-164.309333-91.498667-172.672-91.328zM128 512c0-56.96 13.184-83.754667 31.68-93.44C122.453333 405.418667 85.333333 416.277333 85.333333 512c0 96.618667 37.76 107.541333 75.285334 94.634667C141.653333 596.992 128 570.005333 128 512z" fill="#37474F" p-id="2937"></path><path d="M458.026667 685.482667c-192.341333 33.749333-174.293333-83.050667-172.8-91.306667 11.861333 8.533333 97.728 67.669333 172.8 91.306667z m-0.490667-346.922667c-189.504-33.322667-173.610667 76.309333-171.498667 87.552 15.061333-11.776 85.205333-61.397333 171.498667-87.552zM576 704a384 384 0 0 1-64.938667-5.738667l-0.064 0.064s24.341333 28.010667 66.133334 27.008c76.586667-1.834667 128.256-44.586667 138.048-53.333333-47.253333 19.370667-95.914667 32-139.178667 32z m0-384c38.592 0 81.408 7.146667 123.754667 18.816-5.909333-5.610667-53.824-63.530667-119.808-61.482667-50.794667 1.578667-66.88 43.456-68.586667 48.384 20.885333-3.541333 42.453333-5.717333 64.64-5.717333z" fill="#E64A19" p-id="2938"></path><path d="M234.666667 469.333333s-37.546667-37.546667-74.986667-50.773333C141.184 428.245333 128 455.04 128 512c0 58.005333 13.653333 84.992 32.618667 94.634667 37.077333-12.757333 73.941333-48.789333 74.048-48.725334 0-0.021333 21.333333-45.866667 0-88.576zM458.56 338.218667c-108.672 32.661333-192.341333 103.061333-172.885333 88.618666A450.133333 450.133333 0 0 0 277.333333 512c0 28.032 2.922667 55.424 7.872 82.048-14.954667-10.474667 86.570667 64.448 173.290667 91.605333A488.469333 488.469333 0 0 1 426.666667 512c0-61.162667 11.349333-119.722667 31.893333-173.781333zM938.666667 490.666667c0-41.984-91.797333-102.314667-197.077334-138.858667A275.349333 275.349333 0 0 0 704 490.709333c0 60.714667 19.797333 116.714667 52.885333 162.389334C855.616 603.733333 938.666667 530.602667 938.666667 490.666667z" fill="#FF5722" p-id="2939"></path><path d="M699.754667 338.816C657.408 327.146667 614.592 320 576 320c-22.549333 0-44.437333 2.218667-65.642667 5.845333A444.586667 444.586667 0 0 0 469.333333 512c0 66.474667 14.954667 129.386667 41.045334 186.197333 20.949333 3.584 42.730667 5.802667 65.621333 5.802667 43.946667 0 93.397333-12.970667 141.333333-32.853333A318.037333 318.037333 0 0 1 661.333333 490.709333c0-54.954667 13.909333-106.688 38.421334-151.893333z" fill="#FF5722" p-id="2940"></path><path d="M510.357333 325.845333l-0.149333 0.021334c-7.424 1.28-14.656 2.88-21.866667 4.544-1.898667 0.426667-3.818667 0.832-5.717333 1.28-8.064 1.984-16 4.138667-23.829333 6.464l-0.234667 0.064A488.170667 488.170667 0 0 0 426.666667 512c0 61.12 11.328 119.616 31.829333 173.653333l0.085333 0.021334a411.008 411.008 0 0 0 51.797334 12.522666A444.778667 444.778667 0 0 1 469.333333 512c0-66.453333 14.933333-129.365333 41.024-186.154667zM277.333333 512c0-29.12 3.029333-57.557333 8.362667-85.162667a587.882667 587.882667 0 0 0-42.432 34.474667l-0.213333 0.192c-2.752 2.496-4.885333 4.458667-6.250667 5.781333-1.344 14.741333-2.133333 29.632-2.133333 44.714667 0 16.042667 0.832 31.914667 2.325333 47.552l5.333333 3.84c13.802667 9.898667 27.925333 20.16 42.88 30.656A448.362667 448.362667 0 0 1 277.333333 512zM741.589333 351.808a682.133333 682.133333 0 0 0-41.834666-12.992A317.674667 317.674667 0 0 0 661.333333 490.709333c0 66.901333 20.736 129.002667 56 180.437334 2.432-1.002667 4.885333-2.005333 7.296-3.050667 4.458667-1.877333 8.96-4.010667 13.44-5.994667 6.336-2.901333 12.629333-5.888 18.837334-9.002666A275.733333 275.733333 0 0 1 704 490.709333c0-50.709333 13.824-98.005333 37.589333-138.901333z" fill="#FFFFFF" p-id="2941"></path><path d="M800 458.666667m-32 0a32 32 0 1 0 64 0 32 32 0 1 0-64 0Z" fill="#3E2723" p-id="2942"></path></svg>